<?xml version="1.0" standalone="no"?>
<!DOCTYPE svg PUBLIC "-//W3C//DTD SVG 20010904//EN"
 "http://www.w3.org/TR/2001/REC-SVG-20010904/DTD/svg10.dtd">
<svg version="1.0" xmlns="http://www.w3.org/2000/svg"
 width="1080.000000pt" height="1080.000000pt" viewBox="0 0 1080.000000 1080.000000"
 preserveAspectRatio="xMidYMid meet">

<g transform="translate(0.000000,1080.000000) scale(0.100000,-0.100000)"
fill="#000000" stroke="none">
<path d="M5110 9849 c-475 -61 -1005 -367 -1331 -771 -294 -362 -499 -852
-580 -1383 -27 -177 -37 -624 -20 -827 29 -328 130 -817 238 -1153 45 -142
204 -577 245 -673 22 -51 39 -94 37 -96 -39 -28 -592 -506 -754 -651 -44 -40
-150 -134 -235 -211 -347 -311 -774 -711 -1102 -1033 -109 -107 -200 -192
-203 -190 -2 3 28 106 66 229 39 124 118 376 176 560 58 184 136 432 173 550
37 118 71 226 75 239 7 23 6 23 -46 16 -289 -39 -560 -230 -650 -456 -11 -29
-38 -156 -60 -283 -98 -571 -291 -1150 -566 -1700 -126 -252 -252 -465 -429
-729 -74 -110 -127 -197 -119 -197 31 0 197 65 293 116 186 98 320 201 504
390 133 136 238 268 526 653 405 543 586 755 953 1116 373 367 748 671 1170
951 240 159 304 194 372 201 73 7 104 -11 152 -89 74 -121 257 -390 367 -541
483 -660 1067 -1232 1659 -1623 625 -413 1214 -645 1875 -740 171 -24 588 -30
758 -10 915 106 1582 611 1915 1449 169 423 230 790 218 1292 -11 412 -53 701
-173 1165 -260 1013 -614 1475 -1249 1631 -182 44 -328 59 -592 59 -272 0
-414 -10 -691 -50 -366 -53 -717 -140 -1117 -278 -644 -222 -1306 -543 -2161
-1048 -105 -63 -198 -116 -208 -120 -13 -5 -31 25 -95 157 -210 434 -375 927
-440 1319 -61 367 -55 774 15 1089 138 622 435 1043 1098 1559 l157 122 -78
-1 c-43 -1 -107 -5 -143 -10z m4035 -3544 c222 -27 500 -89 615 -137 166 -70
194 -137 256 -628 22 -176 30 -556 15 -716 -51 -544 -227 -963 -539 -1285
-223 -231 -484 -376 -834 -465 -301 -76 -669 -76 -1022 1 -874 189 -1843 842
-2502 1686 -117 149 -278 389 -268 399 14 12 273 149 449 237 748 375 1553
655 2345 818 256 53 446 79 790 109 106 9 572 -3 695 -19z"/>
<path d="M7829 8822 c-34 -17 -65 -44 -84 -71 -27 -39 -30 -50 -30 -121 0 -71
3 -82 30 -121 87 -124 231 -141 335 -41 74 73 91 166 45 258 -56 112 -185 154
-296 96z"/>
<path d="M2649 2027 c-104 -30 -216 -120 -267 -215 -85 -159 -51 -376 78 -496
77 -72 165 -109 271 -114 225 -11 394 121 439 343 37 181 -58 363 -235 451
-62 31 -85 37 -157 40 -50 2 -101 -1 -129 -9z"/>
</g>
</svg>
